<svg xmlns="http://www.w3.org/2000/svg"><symbol id="spacebubbles" viewBox="0 0 190 220"><path d="M94.5.4l94.9 54.8v109.6l-94.9 54.8-94.9-54.8V55.2L94.5.4z"/><path fill="#fff" d="M40.9 154.5l-4.2-6a2 2 0 0 1 .2-2.1l14.9-17.7h-7.3a1.7 1.7 0 0 1-1.8-1.8V114a1.7 1.7 0 0 1 1.8-1.8h10.4a49.4 49.4 0 0 1-2-13.7 42.6 42.6 0 0 1 85.2 0 45.9 45.9 0 0 1-2 13.7h10.4a1.7 1.7 0 0 1 1.8 1.8v12.9a1.7 1.7 0 0 1-1.8 1.8h-9.2l14.8 17.7a1.8 1.8 0 0 1 0 2.1l-4.1 6a2 2 0 0 1-2.4.5l-8.6-4.5H51.8l-8.6 4.5a1.9 1.9 0 0 1-2.3-.5zm27.3-25.8H56.3l-15.8 18.7L43 151l30.4-16zm-21.9-12.9v9.3h98.4v-9.3zm12.4-3.6h73.6a45.2 45.2 0 0 0 2.2-13.7 39 39 0 0 0-78 0c0 4.7.4 9.5 2.2 13.7zM76 137.9l-17.1 9h24.4zm-3.1-9.2L88 146.9h13l15.1-18.2zm40.1 9.2l-7.3 9h24.4zm19.7-9.2h-11.9l-5.4 6.3 30.6 16 2.5-3.4z"/></symbol><symbol id="mecha-stilts" viewBox="0 0 190 220"><path d="M94.5 1.9l94.9 54.8v109.6l-94.9 54.8-94.9-54.8V56.7L94.5 1.9z"/><path fill="#fff" d="M39.4 152a1.8 1.8 0 1 1 0-3.6h9v-11.3h-9a1.7 1.7 0 0 1-1.8-1.8V99.8a1.7 1.7 0 0 1 1.8-1.8h11.9c.9-25.6 20-39.6 43.2-39.6s42.3 14 43.2 39.6h11.9a1.7 1.7 0 0 1 1.8 1.8v35.5a1.7 1.7 0 0 1-1.8 1.8h-9v11.3h9a1.8 1.8 0 1 1 0 3.6zm1.8-50.4v31.9h106.6v-31.9zM52 137.1v11.3h11.5v-11.3zM54.9 98h79.2c-.9-23.2-18.5-36-39.6-36S55.8 74.8 54.9 98zm12.2 39.1v11.3h18v-11.3zm21.6 0v11.3h11.6v-11.3zm48.8-12.3H93.6a1.8 1.8 0 0 1 0-3.6h43.9a1.8 1.8 0 1 1 0 3.6zm-33.6 12.3v11.3h18v-11.3zm21.6 0v11.3H137v-11.3z"/></symbol><symbol id="super-domes" viewBox="0 0 190 220"><path d="M94.5.4l94.9 54.8v109.6l-94.9 54.8-94.9-54.8V55.2L94.5.4z"/><path fill="#fff" d="M42.5 150.5a1.7 1.7 0 0 1-1.8-1.8v-21.8H16.9a1.8 1.8 0 1 1 0-3.6h13.5v-11.7a1.7 1.7 0 0 1 1.8-1.8h7a57.2 57.2 0 0 1 55.1-43.7c.2-.2.4-.2.7 0a57 57 0 0 1 54.8 43.7h7a1.7 1.7 0 0 1 1.8 1.8v11.7h13.5a1.8 1.8 0 1 1 0 3.6h-23.8v21.8a1.7 1.7 0 0 1-1.8 1.8zM34 113.4v9.9h121v-9.9zm56.9-43.5C67.9 71.3 48.6 88 43 109.8h19.3zm-46.6 57v20h48.4v-20zm48.4-53.4l-25.9 36.3h25.9zm3.6-3.8v40.1H146a53.6 53.6 0 0 0-49.7-40.1zm0 57.2v20h8.1v-20zm11.7 0v20h36.7v-20z"/></symbol></svg>